<?xml version="1.0" standalone="no"?>
<!DOCTYPE svg PUBLIC "-//W3C//DTD SVG 20010904//EN"
 "http://www.w3.org/TR/2001/REC-SVG-20010904/DTD/svg10.dtd">
<svg version="1.0" xmlns="http://www.w3.org/2000/svg"
 width="500.000000pt" height="500.000000pt" viewBox="0 0 500.000000 500.000000"
 preserveAspectRatio="xMidYMid meet">
<metadata>
Created by potrace 1.14, written by Peter Selinger 2001-2017
</metadata>
<g transform="translate(0.000000,500.000000) scale(0.100000,-0.100000)"
fill="#000000" stroke="none">
<path d="M2809 4966 c-2 -2 -40 -7 -84 -10 -44 -4 -87 -9 -95 -11 -8 -2 -33
-6 -55 -9 -22 -4 -62 -11 -90 -16 -27 -6 -59 -12 -70 -14 -199 -39 -537 -179
-726 -301 -38 -25 -74 -45 -78 -45 -5 0 -11 -4 -13 -8 -1 -4 -39 -34 -83 -66
-363 -263 -655 -641 -817 -1056 -67 -170 -126 -400 -143 -550 -3 -30 -10 -89
-15 -130 -9 -80 -5 -474 5 -550 36 -266 103 -518 182 -690 48 -106 107 -225
123 -250 167 -257 267 -389 400 -520 210 -209 506 -408 765 -516 148 -61 329
-118 435 -137 14 -3 36 -8 50 -11 14 -3 41 -8 60 -10 19 -2 51 -7 70 -10 19
-3 55 -9 80 -13 25 -3 408 -8 853 -10 l807 -4 0 960 0 961 -568 0 c-365 0
-590 4 -628 11 -54 10 -166 56 -203 83 -45 33 -159 158 -180 196 -106 202 -80
442 65 608 98 111 215 177 349 196 17 2 285 5 598 5 l567 1 0 960 0 960 -779
0 c-428 -1 -780 -2 -782 -4z"/>
</g>
</svg>
